<mxfile host="app.diagrams.net" modified="2024-03-25T09:15:44.775Z" agent="Mozilla/5.0 (Windows NT 10.0; Win64; x64) AppleWebKit/537.36 (KHTML, like Gecko) Chrome/123.0.0.0 Safari/537.36" version="24.1.0" etag="m-DGW1HMFvHO_220Ertf" type="github">
  <diagram name="Strona-1" id="GHl-YCpMPckR1xfQqi_0">
    <mxGraphModel>
      <root>
        <mxCell id="0" />
        <mxCell id="1" parent="0" />
      </root>
    </mxGraphModel>
  </diagram>
</mxfile>
